<?xml version="1.0" encoding="utf-8"?>
<!-- Generator: Adobe Illustrator 25.3.1, SVG Export Plug-In . SVG Version: 6.00 Build 0)  -->
<svg version="1.1" id="Layer_1" xmlns="http://www.w3.org/2000/svg" xmlns:xlink="http://www.w3.org/1999/xlink" x="0px" y="0px"
	 viewBox="0 0 20 20" enable-background="new 0 0 20 20" xml:space="preserve">
<path fill="#003E92" d="M19.65,7.34c-0.24-0.85-0.57-1.65-1.01-2.39s-0.95-1.42-1.56-2.03s-1.28-1.13-2.03-1.56
	c-0.74-0.43-1.54-0.77-2.39-1.01C11.81,0.12,10.92,0,10,0S8.19,0.12,7.34,0.35C6.49,0.59,5.69,0.93,4.95,1.36
	C4.2,1.79,3.53,2.31,2.92,2.92S1.79,4.21,1.36,4.95S0.59,6.49,0.35,7.34C0.12,8.19,0,9.08,0,10s0.12,1.81,0.35,2.67
	c0.24,0.85,0.57,1.65,1.01,2.39s0.95,1.41,1.56,2.02c0.61,0.61,1.28,1.13,2.02,1.56c0.74,0.43,1.54,0.77,2.39,1
	C8.19,19.88,9.08,20,10,20c0.92,0,1.8-0.12,2.66-0.36c0.85-0.24,1.65-0.58,2.39-1.01c0.74-0.43,1.41-0.95,2.02-1.56
	c0.61-0.61,1.13-1.28,1.56-2.02c0.43-0.74,0.77-1.53,1.01-2.39S20,10.92,20,10S19.88,8.19,19.65,7.34z"/>
<path opacity="0.1" d="M10,18c-1.38,0-2.5-1.12-2.5-2.5v-5C7.5,9.12,8.62,8,10,8c1.38,0,2.5,1.12,2.5,2.5v5
	C12.5,16.88,11.38,18,10,18z"/>
<path opacity="0.1" d="M10,8C9.78,8,9.58,7.98,9.39,7.93C9.2,7.89,9.03,7.84,8.85,7.77C8.67,7.7,8.48,7.6,8.3,7.47
	c-0.12-0.08-0.28-0.2-0.42-0.34C7.31,6.56,7,5.8,7,5c0-0.8,0.31-1.56,0.88-2.13c0.14-0.14,0.3-0.27,0.47-0.38
	c0.17-0.11,0.34-0.21,0.53-0.28c0.15-0.06,0.32-0.11,0.5-0.15C9.61,2.02,9.8,2,10,2c0.79,0,1.57,0.32,2.12,0.87
	C12.69,3.44,13,4.2,13,5c0,0.8-0.31,1.56-0.88,2.13C11.56,7.68,10.79,8,10,8z"/>
<path opacity="0.08" d="M10,17.5c-1.1,0-2-0.9-2-2v-5c0-1.1,0.9-2,2-2c1.1,0,2,0.9,2,2v5C12,16.6,11.1,17.5,10,17.5z"/>
<path opacity="0.08" d="M10,7.5c-0.18,0-0.35-0.02-0.5-0.05C9.34,7.41,9.19,7.37,9.05,7.31C8.89,7.25,8.74,7.17,8.6,7.06
	C8.48,6.99,8.35,6.89,8.24,6.77C7.76,6.3,7.5,5.67,7.5,5s0.26-1.3,0.74-1.77C8.35,3.11,8.48,3,8.62,2.92
	C8.77,2.83,8.9,2.74,9.06,2.68C9.19,2.63,9.34,2.59,9.5,2.55C9.67,2.52,9.83,2.5,10,2.5c0.66,0,1.31,0.26,1.77,0.72
	C12.24,3.7,12.5,4.33,12.5,5s-0.26,1.3-0.74,1.77C11.3,7.23,10.66,7.5,10,7.5z"/>
<path fill="#4CC2FF" d="M10,17c-0.83,0-1.5-0.67-1.5-1.5v-5C8.5,9.67,9.17,9,10,9s1.5,0.67,1.5,1.5v5C11.5,16.33,10.83,17,10,17z"/>
<path fill="#4CC2FF" d="M10,7C9.87,7,9.74,6.99,9.61,6.96C9.48,6.93,9.36,6.9,9.24,6.85C9.11,6.8,9,6.74,8.89,6.66
	c-0.11-0.07-0.21-0.15-0.3-0.24C8.21,6.04,8,5.53,8,5c0-0.53,0.21-1.04,0.59-1.42c0.09-0.09,0.19-0.17,0.3-0.24
	C9,3.27,9.11,3.2,9.24,3.15C9.36,3.1,9.48,3.07,9.61,3.04c0.65-0.13,1.34,0.08,1.8,0.54C11.79,3.96,12,4.47,12,5
	c0,0.53-0.21,1.04-0.59,1.42C11.04,6.79,10.53,7,10,7z"/>
</svg>
