<?xml version="1.0" encoding="utf-8"?>
<!-- Generator: Adobe Illustrator 25.3.1, SVG Export Plug-In . SVG Version: 6.00 Build 0)  -->
<svg version="1.1" id="Layer_2" xmlns="http://www.w3.org/2000/svg" xmlns:xlink="http://www.w3.org/1999/xlink" x="0px" y="0px"
	 viewBox="0 0 20 20" enable-background="new 0 0 20 20" xml:space="preserve">
<path fill="#003E92" d="M2.14,8.57c-0.29,0-0.57-0.06-0.83-0.17C1.06,8.29,0.83,8.14,0.63,7.94c-0.2-0.2-0.35-0.43-0.46-0.69
	C0.06,6.99,0,6.72,0,6.43V2.14c0-0.29,0.06-0.57,0.17-0.83c0.11-0.26,0.27-0.49,0.46-0.69c0.2-0.2,0.43-0.35,0.69-0.46
	C1.58,0.06,1.85,0,2.14,0h4.29c0.29,0,0.57,0.06,0.83,0.17c0.26,0.11,0.49,0.27,0.69,0.46c0.2,0.2,0.35,0.43,0.46,0.69
	c0.11,0.26,0.17,0.54,0.17,0.83v4.29c0,0.29-0.06,0.57-0.17,0.83C8.29,7.52,8.14,7.74,7.94,7.94c-0.2,0.2-0.43,0.35-0.69,0.46
	C6.99,8.52,6.72,8.57,6.43,8.57H2.14z"/>
<path fill="#003E92" d="M2.14,20c-0.29,0-0.57-0.06-0.83-0.17c-0.26-0.11-0.49-0.27-0.69-0.46c-0.2-0.2-0.35-0.43-0.46-0.69
	C0.06,18.42,0,18.15,0,17.86v-4.29c0-0.29,0.06-0.57,0.17-0.83s0.27-0.49,0.46-0.69c0.2-0.2,0.43-0.35,0.69-0.46
	c0.26-0.11,0.54-0.17,0.83-0.17h4.29c0.29,0,0.57,0.06,0.83,0.17c0.26,0.11,0.49,0.27,0.69,0.46c0.2,0.2,0.35,0.43,0.46,0.69
	c0.11,0.26,0.17,0.54,0.17,0.83v4.29c0,0.29-0.06,0.57-0.17,0.83c-0.11,0.26-0.27,0.49-0.46,0.69c-0.2,0.2-0.43,0.35-0.69,0.46
	C6.99,19.94,6.72,20,6.43,20H2.14z"/>
<path fill="#0067C0" d="M6.43,7.14c0.19,0,0.36-0.07,0.5-0.21c0.14-0.14,0.21-0.31,0.21-0.5V2.14c0-0.19-0.07-0.36-0.21-0.5
	C6.79,1.5,6.62,1.43,6.43,1.43H2.14c-0.19,0-0.36,0.07-0.5,0.21C1.5,1.78,1.43,1.95,1.43,2.14v4.29c0,0.19,0.07,0.36,0.21,0.5
	c0.14,0.14,0.31,0.21,0.5,0.21H6.43z"/>
<path fill="#0067C0" d="M6.43,18.57c0.19,0,0.36-0.07,0.5-0.21c0.14-0.14,0.21-0.31,0.21-0.5v-4.29c0-0.19-0.07-0.36-0.21-0.5
	c-0.14-0.14-0.31-0.21-0.5-0.21H2.14c-0.19,0-0.36,0.07-0.5,0.21c-0.14,0.14-0.21,0.31-0.21,0.5v4.29c0,0.19,0.07,0.36,0.21,0.5
	c0.14,0.14,0.31,0.21,0.5,0.21H6.43z"/>
<path fill="#003E92" d="M13.57,8.57c-0.29,0-0.57-0.06-0.83-0.17c-0.26-0.11-0.49-0.27-0.69-0.46c-0.2-0.2-0.35-0.43-0.46-0.69
	c-0.11-0.26-0.17-0.54-0.17-0.83V2.14c0-0.29,0.06-0.57,0.17-0.83c0.11-0.26,0.27-0.49,0.46-0.69c0.2-0.2,0.43-0.35,0.69-0.46
	S13.28,0,13.57,0h4.29c0.29,0,0.57,0.06,0.83,0.17c0.26,0.11,0.49,0.27,0.69,0.46c0.2,0.2,0.35,0.43,0.46,0.69
	C19.94,1.58,20,1.85,20,2.14v4.29c0,0.29-0.06,0.57-0.17,0.83c-0.11,0.26-0.27,0.49-0.46,0.69c-0.2,0.2-0.43,0.35-0.69,0.46
	c-0.26,0.11-0.54,0.17-0.83,0.17H13.57z"/>
<path fill="#003E92" d="M13.57,20c-0.29,0-0.57-0.06-0.83-0.17c-0.26-0.11-0.49-0.27-0.69-0.46c-0.2-0.2-0.35-0.43-0.46-0.69
	c-0.11-0.26-0.17-0.54-0.17-0.83v-4.29c0-0.29,0.06-0.57,0.17-0.83c0.11-0.26,0.27-0.49,0.46-0.69c0.2-0.2,0.43-0.35,0.69-0.46
	c0.26-0.11,0.54-0.17,0.83-0.17h4.29c0.29,0,0.57,0.06,0.83,0.17c0.26,0.11,0.49,0.27,0.69,0.46c0.2,0.2,0.35,0.43,0.46,0.69
	c0.11,0.26,0.17,0.54,0.17,0.83v4.29c0,0.29-0.06,0.57-0.17,0.83c-0.11,0.26-0.27,0.49-0.46,0.69c-0.2,0.2-0.43,0.35-0.69,0.46
	C18.42,19.94,18.15,20,17.86,20H13.57z"/>
<path fill="#0067C0" d="M17.86,7.14c0.19,0,0.36-0.07,0.5-0.21c0.14-0.14,0.21-0.31,0.21-0.5V2.14c0-0.19-0.07-0.36-0.21-0.5
	c-0.14-0.14-0.31-0.21-0.5-0.21h-4.29c-0.19,0-0.36,0.07-0.5,0.21c-0.14,0.14-0.21,0.31-0.21,0.5v4.29c0,0.19,0.07,0.36,0.21,0.5
	c0.14,0.14,0.31,0.21,0.5,0.21H17.86z"/>
<path fill="#0067C0" d="M17.86,18.57c0.19,0,0.36-0.07,0.5-0.21s0.21-0.31,0.21-0.5v-4.29c0-0.19-0.07-0.36-0.21-0.5
	c-0.14-0.14-0.31-0.21-0.5-0.21h-4.29c-0.19,0-0.36,0.07-0.5,0.21c-0.14,0.14-0.21,0.31-0.21,0.5v4.29c0,0.19,0.07,0.36,0.21,0.5
	c0.14,0.14,0.31,0.21,0.5,0.21H17.86z"/>
</svg>
