<?xml version="1.0" encoding="utf-8"?>
<!-- Generator: Adobe Illustrator 25.3.1, SVG Export Plug-In . SVG Version: 6.00 Build 0)  -->
<svg version="1.1" id="Layer_1" xmlns="http://www.w3.org/2000/svg" xmlns:xlink="http://www.w3.org/1999/xlink" x="0px" y="0px"
	 viewBox="0 0 20 20" enable-background="new 0 0 20 20" xml:space="preserve">
<path fill="#003E92" d="M0.83,6.83C0.37,6.83,0,6.46,0,6V4.53C0,3.13,1.13,2,2.53,2H4c0.46,0,0.83,0.37,0.83,0.83S4.46,3.67,4,3.67
	H2.53c-0.48,0-0.87,0.39-0.87,0.87V6C1.67,6.46,1.29,6.83,0.83,6.83z"/>
<path fill="#003E92" d="M0.83,12.17C0.37,12.17,0,11.79,0,11.33V8.67c0-0.46,0.37-0.83,0.83-0.83s0.83,0.37,0.83,0.83v2.67
	C1.67,11.79,1.29,12.17,0.83,12.17z"/>
<path fill="#003E92" d="M4,18H2.53C1.13,18,0,16.87,0,15.47V14c0-0.46,0.37-0.83,0.83-0.83S1.67,13.54,1.67,14v1.47
	c0,0.48,0.39,0.87,0.87,0.87H4c0.46,0,0.83,0.37,0.83,0.83C4.83,17.63,4.46,18,4,18z"/>
<path fill="#003E92" d="M12,3.67H8c-0.46,0-0.83-0.37-0.83-0.83S7.54,2,8,2h4c0.46,0,0.83,0.37,0.83,0.83S12.46,3.67,12,3.67z"/>
<path fill="#003E92" d="M12,18H8c-0.46,0-0.83-0.37-0.83-0.83c0-0.46,0.37-0.83,0.83-0.83h4c0.46,0,0.83,0.37,0.83,0.83
	C12.83,17.63,12.46,18,12,18z"/>
<path fill="#003E92" d="M19.17,6.83c-0.46,0-0.83-0.37-0.83-0.83V4.53c0-0.48-0.39-0.87-0.87-0.87H16c-0.46,0-0.83-0.37-0.83-0.83
	S15.54,2,16,2h1.47C18.87,2,20,3.13,20,4.53V6C20,6.46,19.63,6.83,19.17,6.83z"/>
<path fill="#003E92" d="M19.17,12.17c-0.46,0-0.83-0.37-0.83-0.83V8.67c0-0.46,0.37-0.83,0.83-0.83c0.46,0,0.83,0.37,0.83,0.83v2.67
	C20,11.79,19.63,12.17,19.17,12.17z"/>
<path fill="#003E92" d="M17.47,18H16c-0.46,0-0.83-0.37-0.83-0.83c0-0.46,0.37-0.83,0.83-0.83h1.47c0.48,0,0.87-0.39,0.87-0.87V14
	c0-0.46,0.37-0.83,0.83-0.83c0.46,0,0.83,0.37,0.83,0.83v1.47C20,16.87,18.87,18,17.47,18z"/>
<path opacity="0.1" d="M8.25,14.5c-0.26,0-0.51-0.05-0.74-0.15c-0.22-0.09-0.42-0.23-0.58-0.4c-0.17-0.17-0.3-0.36-0.39-0.58
	c-0.1-0.23-0.16-0.48-0.16-0.75V7.37c0-0.26,0.05-0.51,0.16-0.75c0.1-0.21,0.23-0.41,0.39-0.57c0.17-0.17,0.37-0.3,0.59-0.4
	C7.74,5.55,7.99,5.5,8.25,5.5c0.38,0,0.74,0.11,1.06,0.33l3.31,2.28c0.31,0.21,0.56,0.49,0.73,0.82c0.18,0.34,0.27,0.7,0.27,1.07
	s-0.09,0.74-0.26,1.07c-0.18,0.33-0.42,0.61-0.73,0.82l-3.31,2.28C8.99,14.39,8.63,14.5,8.25,14.5z"/>
<path opacity="0.08" d="M8.25,14c-0.19,0-0.37-0.04-0.54-0.11c-0.16-0.07-0.31-0.17-0.43-0.29c-0.12-0.12-0.22-0.26-0.29-0.42
	C6.91,13,6.88,12.82,6.88,12.63V7.37c0-0.19,0.04-0.37,0.11-0.54c0.07-0.16,0.17-0.3,0.29-0.42C7.4,6.28,7.55,6.18,7.71,6.11
	C7.88,6.04,8.06,6,8.25,6c0.28,0,0.54,0.08,0.78,0.24l3.31,2.28c0.24,0.17,0.44,0.38,0.57,0.64c0.14,0.26,0.21,0.54,0.21,0.84
	c0,0.3-0.07,0.58-0.21,0.84c-0.14,0.26-0.33,0.47-0.57,0.64l-3.31,2.28C8.79,13.92,8.53,14,8.25,14z"/>
<path fill="#0091F8" d="M7.38,12.63V7.37c0-0.12,0.02-0.23,0.07-0.34c0.05-0.1,0.11-0.2,0.19-0.28S7.8,6.61,7.91,6.57
	C8.02,6.52,8.13,6.5,8.25,6.5c0.18,0,0.35,0.05,0.5,0.16l3.31,2.28c0.18,0.12,0.32,0.28,0.42,0.46c0.1,0.19,0.15,0.39,0.15,0.6
	c0,0.21-0.05,0.41-0.15,0.6c-0.1,0.19-0.24,0.34-0.42,0.46l-3.31,2.28c-0.15,0.1-0.32,0.16-0.5,0.16c-0.12,0-0.23-0.02-0.34-0.07
	c-0.11-0.05-0.2-0.11-0.28-0.19s-0.14-0.17-0.19-0.28C7.4,12.87,7.38,12.75,7.38,12.63z"/>
</svg>
