<?xml version="1.0" encoding="utf-8"?>
<!-- Generator: Adobe Illustrator 25.3.1, SVG Export Plug-In . SVG Version: 6.00 Build 0)  -->
<svg version="1.1" id="Layer_1" xmlns="http://www.w3.org/2000/svg" xmlns:xlink="http://www.w3.org/1999/xlink" x="0px" y="0px"
	 viewBox="0 0 20 20" enable-background="new 0 0 20 20" xml:space="preserve">
<path fill="#0067C0" d="M18.75,8.12H17.5V6.75c0-1.66-1.34-3-3-3H3c-1.66,0-3,1.34-3,3v6.5c0,1.66,1.34,3,3,3h11.5
	c1.66,0,3-1.34,3-3v-1.38h1.25c0.69,0,1.25-0.56,1.25-1.25V9.38C20,8.68,19.44,8.12,18.75,8.12z"/>
<path opacity="0.1" d="M3.25,15.5c-1.38,0-2.5-1.12-2.5-2.5V7c0-1.38,1.12-2.5,2.5-2.5h11c1.38,0,2.5,1.12,2.5,2.5v6
	c0,1.38-1.12,2.5-2.5,2.5H3.25z"/>
<path opacity="0.08" d="M3.25,15c-1.1,0-2-0.9-2-2V7c0-1.1,0.9-2,2-2h11c1.1,0,2,0.9,2,2v6c0,1.1-0.9,2-2,2H3.25z"/>
<path fill="#99EBFF" d="M3.25,14.5c-0.83,0-1.5-0.67-1.5-1.5V7c0-0.83,0.67-1.5,1.5-1.5h11c0.83,0,1.5,0.67,1.5,1.5v6
	c0,0.83-0.67,1.5-1.5,1.5H3.25z"/>
<path opacity="0.1" d="M13.02,11.75c-0.17,0-0.34-0.03-0.52-0.1c-0.2-0.08-0.36-0.18-0.49-0.32L8.09,7.37
	c-0.35-0.35-0.62-0.76-0.8-1.21C7.1,5.7,7,5.21,7,4.72c0-0.51,0.1-1,0.29-1.45c0.19-0.44,0.45-0.84,0.79-1.17
	c0.33-0.33,0.72-0.6,1.17-0.8C9.7,1.1,10.18,1,10.69,1c0.35,0,0.67,0.04,0.96,0.12c0.3,0.08,0.58,0.2,0.83,0.35
	c0.18,0.11,0.35,0.23,0.51,0.36c0.16-0.13,0.33-0.25,0.51-0.35c0.26-0.15,0.53-0.27,0.82-0.34c0.29-0.08,0.61-0.12,0.95-0.12
	c0.51,0,1,0.1,1.46,0.3c0.45,0.2,0.84,0.47,1.18,0.8c0.33,0.34,0.6,0.73,0.79,1.19C18.9,3.76,19,4.25,19,4.76
	c0,0.49-0.09,0.97-0.28,1.42c-0.19,0.45-0.46,0.86-0.8,1.21l-3.9,3.94C13.76,11.6,13.4,11.75,13.02,11.75z"/>
<path opacity="0.08" d="M13.02,11.25c-0.11,0-0.22-0.02-0.34-0.07c-0.13-0.05-0.23-0.12-0.31-0.2L8.44,7.02
	c-0.3-0.3-0.53-0.66-0.7-1.05C7.58,5.57,7.5,5.15,7.5,4.72c0-0.44,0.08-0.86,0.25-1.25c0.17-0.38,0.39-0.73,0.68-1.02
	c0.29-0.29,0.63-0.52,1.01-0.69c0.39-0.17,0.81-0.26,1.25-0.26c0.3,0,0.58,0.03,0.83,0.1c0.25,0.07,0.49,0.17,0.71,0.29
	c0.21,0.12,0.4,0.27,0.59,0.43c0.06,0.05,0.12,0.1,0.18,0.16c0.06-0.05,0.12-0.11,0.17-0.16c0.19-0.16,0.38-0.31,0.59-0.43
	c0.22-0.13,0.45-0.23,0.7-0.29c0.25-0.07,0.52-0.1,0.82-0.1c0.44,0,0.86,0.09,1.26,0.26c0.39,0.17,0.73,0.41,1.02,0.7
	c0.29,0.29,0.52,0.64,0.69,1.03c0.17,0.39,0.26,0.82,0.26,1.26c0,0.43-0.08,0.84-0.24,1.23c-0.16,0.39-0.39,0.74-0.69,1.05
	l-3.9,3.94C13.49,11.16,13.27,11.25,13.02,11.25z"/>
<path fill="#0091F8" d="M15.27,2.01c0.37,0,0.72,0.07,1.05,0.22c0.33,0.15,0.62,0.34,0.87,0.59c0.25,0.25,0.44,0.54,0.59,0.88
	C17.93,4.03,18,4.39,18,4.76c0,0.36-0.07,0.71-0.2,1.04c-0.14,0.33-0.33,0.63-0.59,0.89l-3.9,3.94c-0.08,0.08-0.18,0.12-0.3,0.12
	c-0.05,0-0.1-0.01-0.16-0.04c-0.06-0.02-0.1-0.05-0.14-0.09L8.8,6.66C8.54,6.41,8.35,6.11,8.21,5.77C8.07,5.44,8,5.09,8,4.72
	c0-0.37,0.07-0.73,0.21-1.06C8.35,3.33,8.55,3.04,8.79,2.8s0.53-0.44,0.86-0.58C9.97,2.07,10.32,2,10.69,2
	c0.26,0,0.49,0.03,0.7,0.08c0.21,0.06,0.4,0.14,0.58,0.24c0.18,0.11,0.35,0.23,0.51,0.38c0.16,0.15,0.33,0.31,0.51,0.48
	c0.17-0.18,0.34-0.33,0.5-0.48c0.16-0.14,0.33-0.27,0.51-0.37c0.18-0.11,0.37-0.19,0.58-0.24S15.02,2.01,15.27,2.01z"/>
</svg>
