<?xml version="1.0" encoding="utf-8"?>
<!-- Generator: Adobe Illustrator 25.3.1, SVG Export Plug-In . SVG Version: 6.00 Build 0)  -->
<svg version="1.1" id="Layer_3" xmlns="http://www.w3.org/2000/svg" xmlns:xlink="http://www.w3.org/1999/xlink" x="0px" y="0px"
	 viewBox="0 0 20 20" style="enable-background:new 0 0 20 20;" xml:space="preserve">
<style type="text/css">
	.st0{fill:#0091F8;}
	.st1{fill:#003E92;}
	.st2{opacity:0.1;enable-background:new    ;}
	.st3{opacity:8.000000e-02;enable-background:new    ;}
	.st4{fill:#99EBFF;}
</style>
<path class="st0" d="M20,3v14c0,1.7-1.3,3-3,3h-7V0h7C18.7,0,20,1.3,20,3z"/>
<path class="st1" d="M10,0v20H3c-1.7,0-3-1.3-3-3V3c0-1.7,1.3-3,3-3H10z"/>
<path class="st2" d="M9.5,15.5C8.7,15.5,8,14.8,8,14v-2H6c-0.8,0-1.5-0.7-1.5-1.5v-1C4.5,8.7,5.2,8,6,8h2V6c0-0.8,0.7-1.5,1.5-1.5h1
	C11.3,4.5,12,5.2,12,6v2h2c0.8,0,1.5,0.7,1.5,1.5v1c0,0.8-0.7,1.5-1.5,1.5h-2v2c0,0.8-0.7,1.5-1.5,1.5H9.5z"/>
<path class="st3" d="M9.5,15c-0.6,0-1-0.4-1-1v-2.5H6c-0.6,0-1-0.4-1-1v-1c0-0.6,0.4-1,1-1h2.5V6c0-0.6,0.4-1,1-1h1c0.6,0,1,0.4,1,1
	v2.5H14c0.6,0,1,0.4,1,1v1c0,0.6-0.4,1-1,1h-2.5V14c0,0.6-0.4,1-1,1H9.5z"/>
<path class="st4" d="M14,9h-3V6c0-0.3-0.2-0.5-0.5-0.5h-1C9.2,5.5,9,5.7,9,6v3H6C5.7,9,5.5,9.2,5.5,9.5v1C5.5,10.8,5.7,11,6,11h3v3
	c0,0.3,0.2,0.5,0.5,0.5h1c0.3,0,0.5-0.2,0.5-0.5v-3h3c0.3,0,0.5-0.2,0.5-0.5v-1C14.5,9.2,14.3,9,14,9z"/>
</svg>
