<?xml version="1.0" encoding="utf-8"?>
<!-- Generator: Adobe Illustrator 25.3.1, SVG Export Plug-In . SVG Version: 6.00 Build 0)  -->
<svg version="1.1" id="Layer_1" xmlns="http://www.w3.org/2000/svg" xmlns:xlink="http://www.w3.org/1999/xlink" x="0px" y="0px"
	 viewBox="0 0 20 20" enable-background="new 0 0 20 20" xml:space="preserve">
<circle fill="#003E92" cx="10" cy="10" r="10"/>
<path opacity="0.1" d="M11.64,16.6c-0.54,0-1.04-0.31-1.27-0.8l-1.01-2.11L8.5,14.68c-0.17,0.2-0.37,0.34-0.59,0.43
	c-0.14,0.08-0.38,0.13-0.63,0.13c-0.24,0-0.45-0.04-0.65-0.12c-0.19-0.09-0.36-0.2-0.51-0.35c-0.12-0.09-0.25-0.29-0.35-0.53
	c-0.07-0.17-0.12-0.39-0.12-0.61V5.01c0-0.21,0.04-0.41,0.12-0.61c0.1-0.23,0.21-0.39,0.36-0.54c0.05-0.05,0.12-0.11,0.2-0.17
	l0.08-0.06l0.24-0.11C6.87,3.44,7.06,3.4,7.27,3.4c0.37,0,0.72,0.12,1.01,0.35l6.78,5.59c0.38,0.3,0.59,0.75,0.59,1.25
	c0,0.22-0.05,0.45-0.14,0.65c-0.08,0.18-0.19,0.35-0.34,0.49c-0.14,0.14-0.3,0.25-0.49,0.33c-0.21,0.09-0.43,0.14-0.65,0.14h-1.37
	l0.97,2.03c0.16,0.34,0.18,0.72,0.06,1.08c-0.12,0.36-0.38,0.64-0.72,0.8l-0.73,0.35C12.06,16.55,11.85,16.6,11.64,16.6z"/>
<path opacity="0.08" d="M11.64,16.1c-0.35,0-0.67-0.2-0.82-0.52l-1.34-2.8l-1.35,1.57c-0.12,0.14-0.25,0.23-0.4,0.29
	c-0.11,0.06-0.27,0.09-0.44,0.09c-0.11,0-0.28-0.01-0.45-0.08c-0.13-0.06-0.25-0.14-0.35-0.25c-0.09-0.07-0.18-0.2-0.24-0.36
	c-0.05-0.12-0.08-0.27-0.08-0.42V5.01c0-0.14,0.03-0.28,0.08-0.42c0.07-0.15,0.15-0.27,0.24-0.37C6.52,4.19,6.58,4.15,6.63,4.1
	l0.24-0.12C7,3.92,7.13,3.9,7.27,3.9c0.25,0,0.5,0.09,0.7,0.25l6.77,5.58c0.27,0.21,0.41,0.51,0.41,0.86c0,0.15-0.03,0.31-0.09,0.44
	c-0.06,0.13-0.13,0.25-0.23,0.35c-0.1,0.1-0.21,0.17-0.34,0.23c-0.14,0.06-0.29,0.09-0.44,0.09h-2.16l1.32,2.74
	c0.1,0.22,0.12,0.47,0.04,0.7s-0.25,0.41-0.47,0.52l-0.73,0.35C11.91,16.07,11.77,16.1,11.64,16.1z"/>
<path fill="#4CC2FF" d="M14.43,10.11L8.03,4.84l-0.37-0.3C7.55,4.45,7.42,4.4,7.27,4.4c-0.07,0-0.13,0.01-0.19,0.03L6.93,4.51
	C6.89,4.53,6.86,4.56,6.84,4.58c-0.06,0.06-0.1,0.12-0.13,0.2C6.67,4.86,6.66,4.93,6.66,5.01v0.74v7.87c0,0.08,0.02,0.16,0.05,0.24
	c0.03,0.08,0.07,0.15,0.13,0.2c0.06,0.06,0.12,0.11,0.2,0.14c0.07,0.03,0.16,0.04,0.25,0.04s0.17-0.02,0.25-0.06
	c0.08-0.03,0.15-0.09,0.2-0.16l1.85-2.15l1.68,3.49c0.1,0.2,0.34,0.29,0.55,0.19l0.74-0.35c0.2-0.1,0.29-0.34,0.19-0.55l-1.66-3.46
	h2.96c0.08,0,0.16-0.02,0.24-0.05c0.07-0.03,0.14-0.07,0.2-0.13c0.06-0.06,0.1-0.12,0.13-0.2c0.03-0.07,0.05-0.16,0.05-0.24
	C14.66,10.39,14.58,10.24,14.43,10.11z"/>
</svg>
