<?xml version="1.0" encoding="utf-8"?>
<!-- Generator: Adobe Illustrator 25.3.1, SVG Export Plug-In . SVG Version: 6.00 Build 0)  -->
<svg version="1.1" id="Layer_1" xmlns="http://www.w3.org/2000/svg" xmlns:xlink="http://www.w3.org/1999/xlink" x="0px" y="0px"
	 viewBox="0 0 20 20" enable-background="new 0 0 20 20" xml:space="preserve">
<path d="M15.01,11.3c0,0.08-0.02,0.16-0.05,0.24c-0.03,0.07-0.07,0.14-0.13,0.2c-0.06,0.06-0.12,0.1-0.2,0.13
	c-0.07,0.03-0.16,0.05-0.24,0.05h-2.96l1.66,3.46c0.1,0.2,0.01,0.45-0.19,0.55l-0.74,0.35c-0.2,0.1-0.45,0.01-0.55-0.19l-1.68-3.49
	l-1.85,2.15c-0.06,0.07-0.12,0.12-0.2,0.16c-0.08,0.04-0.16,0.06-0.25,0.06c-0.09,0-0.17-0.01-0.25-0.04
	c-0.07-0.03-0.14-0.08-0.2-0.14c-0.06-0.05-0.1-0.11-0.13-0.2c-0.03-0.07-0.05-0.16-0.05-0.24V6.46V5.72c0-0.08,0.02-0.16,0.05-0.24
	c0.03-0.07,0.07-0.14,0.13-0.2c0.02-0.02,0.06-0.05,0.09-0.07l0.16-0.07c0.06-0.02,0.12-0.03,0.19-0.03c0.15,0,0.28,0.05,0.39,0.14
	l0.37,0.3l6.39,5.27C14.94,10.94,15.01,11.1,15.01,11.3z M4.85,14.35c0.18-0.13,0.21-0.38,0.08-0.56l-0.84-1.12
	c-0.11-0.14-0.11-0.34,0-0.48l0.48-0.64c0.32-0.42,0.32-1.02,0-1.44L4.09,9.47c-0.11-0.14-0.11-0.34,0-0.48l0.48-0.64
	c0.32-0.42,0.32-1.02,0-1.44L3.73,5.78C3.6,5.61,3.35,5.57,3.17,5.71C2.99,5.84,2.96,6.09,3.09,6.27l0.84,1.12
	c0.11,0.14,0.11,0.34,0,0.48L3.45,8.51c-0.32,0.42-0.32,1.02,0,1.44l0.48,0.64c0.11,0.14,0.11,0.34,0,0.48l-0.48,0.64
	c-0.32,0.42-0.32,1.02,0,1.44l0.84,1.12c0.08,0.1,0.2,0.16,0.32,0.16C4.69,14.43,4.78,14.4,4.85,14.35z M17.33,7.95
	c0.01-0.22-0.16-0.41-0.38-0.42l-1.4-0.06c-0.18-0.01-0.33-0.13-0.37-0.31l-0.19-0.78c-0.12-0.51-0.58-0.89-1.11-0.92l-0.8-0.04
	c-0.18-0.01-0.33-0.13-0.37-0.31l-0.19-0.78c-0.12-0.51-0.58-0.89-1.11-0.92l-1.4-0.06C9.79,3.36,9.61,3.53,9.59,3.75
	C9.58,3.97,9.75,4.16,9.98,4.17l1.4,0.06c0.18,0.01,0.33,0.13,0.37,0.31l0.19,0.78c0.12,0.51,0.58,0.89,1.11,0.92l0.8,0.04
	c0.18,0.01,0.33,0.13,0.37,0.31l0.19,0.78c0.12,0.51,0.58,0.89,1.11,0.92l1.4,0.06c0.13,0.01,0.25-0.05,0.33-0.15
	C17.29,8.13,17.33,8.04,17.33,7.95z"/>
</svg>
