<?xml version="1.0" encoding="utf-8"?>
<!-- Generator: Adobe Illustrator 25.3.1, SVG Export Plug-In . SVG Version: 6.00 Build 0)  -->
<svg version="1.1" id="Layer_1" xmlns="http://www.w3.org/2000/svg" xmlns:xlink="http://www.w3.org/1999/xlink" x="0px" y="0px"
	 viewBox="0 0 20 20" enable-background="new 0 0 20 20" xml:space="preserve">
<path fill="#003E92" d="M17.5,18h-15C1.12,18,0,16.88,0,15.5V9.25c0-1.38,1.12-2.5,2.5-2.5h15c1.38,0,2.5,1.12,2.5,2.5v6.25
	C20,16.88,18.88,18,17.5,18z"/>
<path opacity="0.1" d="M13,18c-1.38,0-2.5-1.12-2.5-2.5v-1.4c0-1.24-0.46-1.96-1.04-2.88C8.77,10.14,8,8.93,8,6.84
	C8,3.62,10.69,1,14,1s6,2.62,6,5.84c0,2.09-0.77,3.3-1.46,4.38c-0.58,0.92-1.04,1.64-1.04,2.88v1.4c0,1.38-1.12,2.5-2.5,2.5H13z"/>
<path opacity="0.08" d="M13,17.5c-1.1,0-2-0.9-2-2v-1.4c0-1.38-0.52-2.2-1.12-3.15C9.23,9.93,8.5,8.78,8.5,6.84
	C8.5,3.9,10.97,1.5,14,1.5s5.5,2.4,5.5,5.34c0,1.94-0.73,3.09-1.38,4.11C17.52,11.89,17,12.71,17,14.1v1.4c0,1.1-0.9,2-2,2H13z"/>
<path fill="#0091F8" d="M15,17h-2c-0.83,0-1.5-0.67-1.5-1.5v-1.4h5v1.4C16.5,16.33,15.83,17,15,17z"/>
<path fill="#99EBFF" d="M14,2c-2.76,0-5,2.17-5,4.84c0,3.5,2.5,4.11,2.5,7.26H14h2.5c0-3.15,2.5-3.76,2.5-7.26C19,4.17,16.76,2,14,2
	z"/>
</svg>
